<svg xmlns="http://www.w3.org/2000/svg" xmlns:xlink="http://www.w3.org/1999/xlink" width="30" height="30" viewBox="0 0 30 30"><defs><style>.a,.c{fill:#333;}.a{stroke:#707070;}.b{clip-path:url(#a);}</style><clipPath id="a"><rect class="a" width="30" height="30" transform="translate(63 387)"/></clipPath></defs><g class="b" transform="translate(-63 -387)"><g transform="translate(65 390)"><path class="c" d="M22.167,6H20V7.333h2V22H3.333V7.333h2V6H3.167A1.187,1.187,0,0,0,2,7.207v14.92a1.187,1.187,0,0,0,1.167,1.207h19a1.187,1.187,0,0,0,1.167-1.207V7.207A1.187,1.187,0,0,0,22.167,6Z" transform="translate(0 -1.333)"/><path class="c" d="M8,14H9.333v1.333H8Z" transform="translate(-2 -4)"/><path class="c" d="M14,14h1.333v1.333H14Z" transform="translate(-4 -4)"/><path class="c" d="M20,14h1.333v1.333H20Z" transform="translate(-6 -4)"/><path class="c" d="M26,14h1.333v1.333H26Z" transform="translate(-8 -4)"/><path class="c" d="M8,19H9.333v1.333H8Z" transform="translate(-2 -5.667)"/><path class="c" d="M14,19h1.333v1.333H14Z" transform="translate(-4 -5.667)"/><path class="c" d="M20,19h1.333v1.333H20Z" transform="translate(-6 -5.667)"/><path class="c" d="M26,19h1.333v1.333H26Z" transform="translate(-8 -5.667)"/><path class="c" d="M8,24H9.333v1.333H8Z" transform="translate(-2 -7.333)"/><path class="c" d="M14,24h1.333v1.333H14Z" transform="translate(-4 -7.333)"/><path class="c" d="M20,24h1.333v1.333H20Z" transform="translate(-6 -7.333)"/><path class="c" d="M26,24h1.333v1.333H26Z" transform="translate(-8 -7.333)"/><path class="c" d="M9.667,7.333a.667.667,0,0,0,.667-.667v-4A.667.667,0,0,0,9,2.667v4A.667.667,0,0,0,9.667,7.333Z" transform="translate(-2.333)"/><path class="c" d="M25.667,7.333a.667.667,0,0,0,.667-.667v-4a.667.667,0,0,0-1.333,0v4A.667.667,0,0,0,25.667,7.333Z" transform="translate(-7.667)"/><path class="c" d="M13,6h6.667V7.333H13Z" transform="translate(-3.667 -1.333)"/></g></g></svg>