<svg xmlns="http://www.w3.org/2000/svg" xmlns:xlink="http://www.w3.org/1999/xlink" width="200" height="200" viewBox="0 0 200 200"><defs><style>.a,.c,.d{fill:#172b4d;}.a,.c{stroke:#172b4d;}.b{opacity:0.048;clip-path:url(#a);}.c{stroke-width:0.25px;}</style><clipPath id="a"><rect class="a" width="200" height="200" transform="translate(-2880 -871)"/></clipPath></defs><g class="b" transform="translate(2880 871)"><g transform="translate(-2846.667 -837.667)"><path class="c" d="M233,119.167a12.5,12.5,0,1,0-12.5,12.5A12.515,12.515,0,0,0,233,119.167Zm-19.445,0a6.945,6.945,0,1,1,6.945,6.945A6.951,6.951,0,0,1,213.555,119.167Z" transform="translate(-153.833 -78.889)"/><path class="c" d="M212.121,220.165a32.211,32.211,0,0,0-38.46,0,7.792,7.792,0,0,0-2.995,6.315V255.34a2.776,2.776,0,0,0,2.778,2.778H179v30.555a2.776,2.776,0,0,0,2.778,2.778H204a2.776,2.776,0,0,0,2.778-2.778V258.118h5.556a2.776,2.776,0,0,0,2.778-2.778V226.478A7.793,7.793,0,0,0,212.121,220.165Zm-2.566,32.4H204a2.776,2.776,0,0,0-2.778,2.778V285.9H184.555V255.34a2.776,2.776,0,0,0-2.778-2.778h-5.555V226.478a2.367,2.367,0,0,1,.743-1.848,26.58,26.58,0,0,1,31.852,0,2.371,2.371,0,0,1,.738,1.844Z" transform="translate(-126.222 -158.118)"/><circle class="d" cx="2.778" cy="2.778" r="2.778" transform="translate(47.222 8.333)"/><circle class="d" cx="2.778" cy="2.778" r="2.778" transform="translate(63.889 8.333)"/><circle class="d" cx="2.778" cy="2.778" r="2.778" transform="translate(80.555 8.333)"/><path class="c" d="M8.333,258.778A2.776,2.776,0,0,0,5.555,256H2.778a2.778,2.778,0,0,0,0,5.556H5.556A2.776,2.776,0,0,0,8.333,258.778Z" transform="translate(0 -189.333)"/><path class="c" d="M15.218,294.1l-2.4,1.4a2.777,2.777,0,1,0,2.8,4.8l2.4-1.4a2.777,2.777,0,0,0-2.8-4.8Z" transform="translate(-8.458 -217.227)"/><path class="c" d="M18.017,214.677l-2.4-1.4a2.777,2.777,0,1,0-2.8,4.8l2.4,1.4a2.777,2.777,0,0,0,2.8-4.8Z" transform="translate(-8.458 -157.454)"/><path class="c" d="M485.555,256h-2.778a2.778,2.778,0,0,0,0,5.556h2.778a2.778,2.778,0,0,0,0-5.556Z" transform="translate(-354.999 -189.333)"/><path class="c" d="M472.985,219.851a2.783,2.783,0,0,0,1.4-.377l2.409-1.4a2.779,2.779,0,0,0-2.8-4.8l-2.409,1.4a2.779,2.779,0,0,0,1.4,5.178Z" transform="translate(-347.757 -157.452)"/><path class="c" d="M476.794,295.5l-2.409-1.4a2.779,2.779,0,0,0-2.8,4.8l2.409,1.4a2.779,2.779,0,0,0,2.8-4.8Z" transform="translate(-347.757 -217.235)"/><path class="c" d="M148.286,54.842a2.748,2.748,0,0,0,1.378.366,2.783,2.783,0,0,0,2.414-1.4l1.389-2.43a2.78,2.78,0,0,0-4.829-2.756l-.423.74V11.111A11.124,11.124,0,0,0,137.1,0H59.327A11.124,11.124,0,0,0,48.216,11.111V49.258l-.364-.636a2.78,2.78,0,0,0-4.829,2.756l1.389,2.43a2.783,2.783,0,0,0,2.414,1.4,2.748,2.748,0,0,0,1.378-.366s.007-.007.011-.009v6.807a8.341,8.341,0,0,0,0,15.725v6.692s-.007-.007-.011-.009a2.777,2.777,0,0,0-3.792,1.034l-1.389,2.43A2.777,2.777,0,0,0,44.06,91.3a2.748,2.748,0,0,0,1.378.366,2.783,2.783,0,0,0,2.414-1.4l.364-.636v40.925a2.776,2.776,0,0,0,2.778,2.778H67.66a2.776,2.776,0,0,0,2.778-2.778V22.222h55.555V130.555a2.776,2.776,0,0,0,2.778,2.778h16.667a2.776,2.776,0,0,0,2.778-2.778V89.526l.423.741a2.783,2.783,0,0,0,2.414,1.4,2.748,2.748,0,0,0,1.378-.366,2.777,2.777,0,0,0,1.036-3.79l-1.389-2.43a2.779,2.779,0,0,0-3.792-1.034c-.028.016-.043.045-.071.061v-6.84a8.338,8.338,0,0,0,0-15.762V54.781C148.243,54.8,148.258,54.826,148.286,54.842Zm-5.626,72.936H131.549V22.222a5.561,5.561,0,0,0-5.555-5.555H70.438a5.561,5.561,0,0,0-5.555,5.555V127.778H53.771V11.111a5.561,5.561,0,0,1,5.555-5.555H137.1a5.561,5.561,0,0,1,5.555,5.555V127.778Z" transform="translate(-31.549)"/></g></g></svg>