<svg xmlns="http://www.w3.org/2000/svg" xmlns:xlink="http://www.w3.org/1999/xlink" width="30" height="30" viewBox="0 0 30 30"><defs><style>.a,.c,.d{fill:#333;}.a{stroke:#707070;}.b{clip-path:url(#a);}.d{fill-rule:evenodd;}</style><clipPath id="a"><rect class="a" width="30" height="30" transform="translate(63 162)"/></clipPath></defs><g class="b" transform="translate(-63 -162)"><g transform="translate(68 167)"><path class="c" d="M0,0H1.25V20H0ZM1.25,18.75H20V20H1.25Z"/><path class="d" d="M20.633,9.077l-5.436,6.8-3.8-3.8L6.838,16.63l-.885-.885L11.4,10.3l3.7,3.7,4.563-5.7.976.78Z" transform="translate(-2.646 -3.687)"/><path class="d" d="M22.5,7.375a.625.625,0,0,1,.625-.625h5a.625.625,0,0,1,.625.625v5a.625.625,0,0,1-1.25,0V8H23.125A.625.625,0,0,1,22.5,7.375Z" transform="translate(-10 -3)"/></g></g></svg>