<?xml version="1.0" encoding="utf-8"?>
<!-- Generator: Adobe Illustrator 25.2.1, SVG Export Plug-In . SVG Version: 6.00 Build 0)  -->
<svg version="1.1" id="Layer_1" xmlns="http://www.w3.org/2000/svg" xmlns:xlink="http://www.w3.org/1999/xlink" x="0px" y="0px"
	 viewBox="0 0 30 30" style="enable-background:new 0 0 30 30;" xml:space="preserve">
<style type="text/css">
	.st0{clip-path:url(#SVGID_2_);}
	.st1{fill-rule:evenodd;clip-rule:evenodd;fill:#777777;}
	.st2{fill:#777777;}
</style>
<g>
	<defs>
		<rect id="SVGID_1_" y="0" width="30" height="30"/>
	</defs>
	<clipPath id="SVGID_2_">
		<use xlink:href="#SVGID_1_"  style="overflow:visible;"/>
	</clipPath>
	<g class="st0">
		<g transform="translate(8 5)">
			<path class="st1" d="M9.2,1.1L7.1,0L5,1.1L2.7,1.4L1.7,3.5L0,5.2l0.4,2.3L0,9.8l1.7,1.6l1.1,2.1L5,13.9L7.1,15l2.1-1.1l2.3-0.4
				l1.1-2.1l1.7-1.6l-0.4-2.3l0.4-2.3l-1.7-1.7l-1.1-2.1L9.2,1.1z M10.7,2.6L8.8,2.3L7.1,1.4L5.4,2.3L3.6,2.6L2.7,4.3L1.3,5.6
				l0.3,1.9L1.3,9.4l1.4,1.3l0.9,1.7l1.9,0.3l1.7,0.9l1.7-0.9l1.9-0.3l0.9-1.7l1.4-1.3l-0.3-1.9l0.3-1.9l-1.4-1.3L10.7,2.6z"/>
			<path class="st2" d="M2.1,14.7V20l5-1.3l5,1.3v-5.3l-2.5,0.4l-2.5,1.3l-2.5-1.3L2.1,14.7z"/>
		</g>
	</g>
</g>
</svg>
