<svg xmlns="http://www.w3.org/2000/svg" width="19.958" height="15" viewBox="0 0 19.958 15"><defs><style>.a{fill:#1d3557;}</style></defs><path class="a" d="M10,17.5C3.75,17.5.25,10.667.083,10.333a1.161,1.161,0,0,1,0-.75C.25,9.333,3.75,2.5,10,2.5s9.75,6.833,9.917,7.167a1.161,1.161,0,0,1,0,.75C19.75,10.667,16.25,17.5,10,17.5ZM1.75,10C2.5,11.333,5.5,15.833,10,15.833s7.417-4.5,8.25-5.833C17.5,8.667,14.5,4.167,10,4.167S2.583,8.667,1.75,10Z" transform="translate(-0.021 -2.5)"/><path class="a" d="M10,13.333A3.333,3.333,0,1,1,13.333,10,3.343,3.343,0,0,1,10,13.333Zm0-5A1.667,1.667,0,1,0,11.667,10,1.672,1.672,0,0,0,10,8.333Z" transform="translate(-0.021 -2.5)"/></svg>