<svg xmlns="http://www.w3.org/2000/svg" xmlns:xlink="http://www.w3.org/1999/xlink" width="200" height="200" viewBox="0 0 200 200"><defs><style>.a,.c{fill:#172b4d;}.a{stroke:#707070;}.b{opacity:0.05;clip-path:url(#a);}</style><clipPath id="a"><rect class="a" width="200" height="200" transform="translate(-2849 -741)"/></clipPath></defs><g class="b" transform="translate(2849 741)"><g transform="translate(-2795.667 -707.667)"><g transform="translate(0 11.257)"><g transform="translate(0)"><path class="c" d="M164.106,43.228H136.62V52h27.485V156.532H91.3V52h27.485V43.228H91.3A8.679,8.679,0,0,0,82.527,52V156.532A8.679,8.679,0,0,0,91.3,165.3h72.807a8.679,8.679,0,0,0,8.772-8.772V52A8.68,8.68,0,0,0,164.106,43.228Z" transform="translate(-82.527 -43.228)"/></g></g><g transform="translate(31.871)"><g transform="translate(0)"><path class="c" d="M226.99,0H209.3a4.386,4.386,0,0,0-4.386,4.386V23.977a4.386,4.386,0,0,0,4.386,4.386H226.99a4.386,4.386,0,0,0,4.386-4.386V4.386A4.386,4.386,0,0,0,226.99,0ZM222.6,19.591h-8.92V8.772h8.92Z" transform="translate(-204.913)"/></g></g><g transform="translate(18.421 106.433)"><g transform="translate(0)"><path class="c" d="M202.386,408.7H157.649a4.386,4.386,0,1,0,0,8.772h44.737a4.386,4.386,0,0,0,0-8.772Z" transform="translate(-153.263 -408.702)"/></g></g><g transform="translate(25.731 89.181)"><g transform="translate(0)"><path class="c" d="M215.836,342.456H185.719a4.386,4.386,0,0,0,0,8.772h30.117a4.386,4.386,0,0,0,0-8.772Z" transform="translate(-181.333 -342.456)"/></g></g><g transform="translate(33.918 33.772)"><g transform="translate(0)"><path class="c" d="M224.029,129.684a11.257,11.257,0,1,0,11.257,11.257A11.27,11.27,0,0,0,224.029,129.684Zm0,13.743a2.485,2.485,0,1,1,2.485-2.485A2.488,2.488,0,0,1,224.029,143.427Z" transform="translate(-212.772 -129.684)"/></g></g><g transform="translate(27.485 54.971)"><g transform="translate(0)"><path class="c" d="M205.76,211.088a17.71,17.71,0,0,0-17.69,17.69v3.363a4.386,4.386,0,0,0,4.386,4.386h26.608a4.386,4.386,0,0,0,4.386-4.386v-3.363A17.709,17.709,0,0,0,205.76,211.088Zm-8.86,16.667a8.919,8.919,0,0,1,17.719,0Z" transform="translate(-188.07 -211.088)"/></g></g></g></g></svg>