<svg xmlns="http://www.w3.org/2000/svg" width="29.998" height="30" viewBox="0 0 29.998 30"><defs><style>.a{fill:#333;}</style></defs><path class="a" d="M29.623,8.124h-6.26A4.5,4.5,0,0,0,16.124,2.8,4.5,4.5,0,0,0,8.884,8.124H2.625a1.5,1.5,0,0,0-1.5,1.5v20.1a1.455,1.455,0,0,0,1.5,1.4h27a1.456,1.456,0,0,0,1.5-1.4V9.624A1.5,1.5,0,0,0,29.623,8.124Zm-10-5a2.5,2.5,0,1,1,0,5h-2.5v-2.5a2.5,2.5,0,0,1,2.5-2.5Zm-9.5,2.5a2.5,2.5,0,1,1,5,0v2.5h-2.5a2.5,2.5,0,0,1-2.5-2.5Zm-7,23.5v-13h9v13Zm11,0v-13h4v13Zm15,0h-9v-13h9Zm-26-15v-4h26v4Z" transform="translate(-1.125 -1.122)"/></svg>