<svg xmlns="http://www.w3.org/2000/svg" width="20" height="19.993" viewBox="0 0 20 19.993"><defs><style>.a{fill:#333;}</style></defs><path class="a" d="M12.09,10.236A1.971,1.971,0,1,0,10.118,12.2,1.969,1.969,0,0,0,12.09,10.236ZM15.018.022h-10A4.993,4.993,0,0,0,.016,5V6.385H7.371a4.747,4.747,0,0,1,5.495,0h7.15V5A4.992,4.992,0,0,0,15.018.022Zm2.024,4.733a.555.555,0,0,1-.555.553H14.77a.556.556,0,0,1-.555-.553V3.046a.555.555,0,0,1,.555-.553h1.716a.556.556,0,0,1,.555.553Zm-2.176,5.481a4.748,4.748,0,0,1-9.5,0,4.681,4.681,0,0,1,.451-2.008H.016v6.811a4.993,4.993,0,0,0,5,4.976h10a4.993,4.993,0,0,0,5-4.976V8.228h-5.6a4.683,4.683,0,0,1,.451,2.008Z" transform="translate(-0.016 -0.022)"/></svg>