<svg xmlns="http://www.w3.org/2000/svg" width="10.297" height="12.013" viewBox="0 0 10.297 12.013"><defs><style>.a{fill:#fff;fill-rule:evenodd;}</style></defs><path class="a" d="M13.081,7.4A1.716,1.716,0,0,1,14.8,9.115v3.432a1.716,1.716,0,0,1-1.716,1.716H6.216A1.716,1.716,0,0,1,4.5,12.547V9.115A1.716,1.716,0,0,1,6.216,7.4V5.682a3.432,3.432,0,1,1,6.865,0Zm-3.432-4a2.288,2.288,0,0,1,2.288,2.288V7.4H7.36V5.682A2.288,2.288,0,0,1,9.648,3.394Zm3.432,5.148H6.216a.572.572,0,0,0-.572.572v3.432a.572.572,0,0,0,.572.572h6.865a.572.572,0,0,0,.572-.572V9.115A.572.572,0,0,0,13.081,8.543Z" transform="translate(-4.5 -2.25)"/></svg>