<?xml version="1.0" encoding="utf-8"?>
<!-- Generator: Adobe Illustrator 25.2.1, SVG Export Plug-In . SVG Version: 6.00 Build 0)  -->
<svg version="1.1" id="Layer_1" xmlns="http://www.w3.org/2000/svg" xmlns:xlink="http://www.w3.org/1999/xlink" x="0px" y="0px"
	 viewBox="0 0 176.1 22.1" style="enable-background:new 0 0 176.1 22.1;" xml:space="preserve">
<style type="text/css">
	.st0{fill:#FFFFFF;}
</style>
<path class="st0" d="M0.6,14.5c0,4,0,5.7-0.1,6.9h0.6c0.1-0.8,0.3-1.3,0.6-1.3c0.4,0,0.7,0.2,1,0.4c1.1,0.8,2.5,1.1,3.8,1.1
	c3.3,0,6-1.8,6-5.4c0-3.1-2.1-4.6-5.1-6.4C5,8.1,2.8,7.1,2.8,4.5C2.7,2.7,4.1,1.2,5.9,1.1c0.1,0,0.2,0,0.3,0c3.1,0,4.4,2.8,4.6,5.5
	h0.6c0-3.6,0.1-4.8,0.1-5.8H11C10.9,1.6,10.7,2,10.4,2c-0.4,0-0.7-0.2-1-0.4C8.4,0.9,7.2,0.5,6,0.6c-2.8,0-5.3,1.6-5.3,5
	c0,3.2,2.3,4.8,5,6.4c2.6,1.6,4.4,2.9,4.4,5.2c0.2,1.9-1.2,3.6-3.2,3.8c-0.2,0-0.3,0-0.5,0c-3.6,0-4.9-3-5.1-6.5H0.6z M32.4,0.9
	C31.8,1,30.7,1,29.8,1s-2.2,0-2.9-0.1v0.6c1.9,0.1,2.6,0.7,2.6,2.8v8.9c0,4.3-1.2,7.4-5.4,7.4c-4,0-4.4-3.2-4.4-7.2V3.9
	c0-2.1,0.4-2.4,2.3-2.5V0.9C21,1,19.6,1,18.3,1c-1.5,0-2.8,0-3.6-0.1v0.6C16.6,1.6,17,1.9,17,3.9v9c0,3.9,0.4,5.5,2.1,7.1
	c1.3,1.1,3,1.7,4.7,1.6c2.1,0.1,4-0.9,5.2-2.7c0.9-1.9,1.3-4,1.2-6.1V4.2c0-2.1,0.4-2.7,2.3-2.8L32.4,0.9z M51.3,19.4
	c-0.5,0.7-0.9,1.1-1.5,1.1c-0.8,0-1.1-0.7-1.4-2.3l-0.7-2.9c-0.5-2.4-1.4-3.4-3.9-3.8l-0.3-0.1c4.2-0.7,5.5-3.5,5.5-5.5
	c0-2.8-2.3-5-6.8-5c-0.7,0-2.5,0.1-4.2,0.1c-1.2,0-2.7,0-3.4-0.1v0.6c1.9,0.1,2.3,0.4,2.3,2.5v14.2c0,2.1-0.4,2.4-2.3,2.5v0.6
	c0.8-0.1,2.1-0.1,3.6-0.1c1.3,0,2.7,0,3.6,0.1v-0.6c-1.9-0.1-2.3-0.4-2.3-2.5v-6.6h2.7c2.2,0,2.6,1.6,3.2,4.1l0.6,2.9
	c0.5,2.4,1.6,3.1,3,3.1c1.3,0,2.4-0.7,3-1.8L51.3,19.4z M39.2,11V3.9c0-2,0.4-2.5,2.1-2.5c3.4,0,4.7,1.8,4.7,4.8
	c0,2.6-0.9,4.8-4.9,4.8H39.2z M63.5,14.3v-1.6H53.3v1.6H63.5z M88.8,0.9C87.9,1,86.5,1,85.2,1h-1.3l-6,16.5L71.6,0.9
	C71,1,70.1,1,69.2,1c-0.9,0-2,0-2.6-0.1v0.6c1.9,0.1,2.3,0.4,2.3,2.5v13.9c0,2.1-0.4,2.7-2.3,2.8v0.6c0.6-0.1,1.7-0.1,2.6-0.1
	c1,0,2.2,0,2.9,0.1v-0.6c-2.2-0.1-2.6-0.7-2.6-2.8V2.7l7.1,18.6h0.5l6.8-18.5v15.3c0,2.1-0.4,2.4-2.3,2.5v0.6
	c0.8-0.1,2.1-0.1,3.6-0.1c1.3,0,2.7,0,3.6,0.1v-0.6c-1.9-0.1-2.3-0.4-2.3-2.5V3.9c0-2.1,0.4-2.4,2.3-2.5L88.8,0.9z M105,15.4
	c-0.4,3.8-1.1,5.1-4.6,5.1h-2.1c-1.9,0-2.3-0.3-2.3-2.4v-6.9h1.9c2.4,0,2.5,2,2.7,3.8h0.6c-0.1-2.2-0.2-3.1-0.2-4.1
	c0-0.4,0-0.8,0-1.4c0-0.7,0-1.5,0.1-2.7h-0.6c-0.2,1.4-0.2,3.8-2.6,3.8H96V3.9c0-2.1,0.4-2.4,2.3-2.4h2.3c3,0,3.4,1.1,3.8,4.5h0.6
	C105,5.5,105,4.9,105,4.3c0-0.7,0.1-2,0.2-3.4C103.4,1,101,1,99.3,1c-1.7,0-5.4,0-8.2-0.1v0.6c1.9,0.1,2.3,0.4,2.3,2.5v14.2
	c0,2.1-0.4,2.4-2.3,2.5v0.6c2.8-0.1,6.5-0.1,8.2-0.1c1.9,0,4.5,0,6.4,0.1c-0.1-1.5-0.2-3-0.2-3.7c0-0.8,0-1.6,0.1-2.1H105z
	 M109,14.5c0,4,0,5.7-0.1,6.9h0.6c0.1-0.8,0.3-1.3,0.6-1.3c0.4,0,0.7,0.2,1,0.4c1.1,0.8,2.5,1.1,3.8,1.1c3.3,0,6-1.8,6-5.4
	c0-3.1-2.1-4.6-5.1-6.4c-2.5-1.6-4.7-2.6-4.7-5.2c-0.1-1.8,1.4-3.3,3.1-3.3c0.1,0,0.2,0,0.3,0c3.1,0,4.4,2.8,4.6,5.5h0.6
	c0-3.6,0.1-4.8,0.1-5.8h-0.6c-0.1,0.8-0.3,1.3-0.6,1.3c-0.4,0-0.7-0.2-1-0.4c-1-0.7-2.2-1.1-3.4-1.1c-2.8,0-5.3,1.6-5.3,5
	c0,3.2,2.3,4.8,5,6.4c2.6,1.6,4.4,2.9,4.4,5.2c0.2,1.9-1.2,3.6-3.2,3.8c-0.2,0-0.3,0-0.5,0c-3.6,0-4.9-3-5.1-6.5H109z M140.7,0.9
	C140.1,1,139.1,1,138.1,1s-2.2,0-2.9-0.1v0.6c1.9,0.1,2.6,0.7,2.6,2.8v8.9c0,4.3-1.2,7.4-5.4,7.4c-4,0-4.4-3.2-4.4-7.2V3.9
	c0-2.1,0.4-2.4,2.3-2.5V0.9C129.4,1,128,1,126.7,1c-1.5,0-2.8,0-3.6-0.1v0.6c1.9,0.1,2.3,0.4,2.3,2.5v9c0,3.9,0.4,5.5,2.1,7.1
	c1.3,1.1,3,1.7,4.7,1.6c2.1,0.1,4-0.9,5.2-2.7c0.9-1.9,1.3-4,1.2-6.1V4.2c0-2.1,0.4-2.7,2.3-2.8L140.7,0.9z M159.7,19.4
	c-0.5,0.7-0.9,1.1-1.5,1.1c-0.8,0-1.1-0.7-1.4-2.3l-0.7-2.9c-0.5-2.4-1.4-3.4-3.9-3.8l-0.3-0.1c4.2-0.7,5.5-3.5,5.5-5.5
	c0-2.8-2.3-5-6.8-5c-0.7,0-2.5,0.1-4.2,0.1c-1.2,0-2.7,0-3.4-0.1v0.6c1.9,0.1,2.3,0.4,2.3,2.5v14.2c0,2.1-0.4,2.4-2.3,2.5v0.6
	c0.8-0.1,2.1-0.1,3.6-0.1c1.3,0,2.7,0,3.6,0.1v-0.6c-1.9-0.1-2.3-0.4-2.3-2.5v-6.6h2.7c2.2,0,2.6,1.6,3.2,4.1l0.6,2.9
	c0.5,2.4,1.6,3.1,3,3.1c1.3,0,2.4-0.7,3-1.8L159.7,19.4z M147.6,11V3.9c0-2,0.4-2.5,2.1-2.5c3.4,0,4.7,1.8,4.7,4.8
	c0,2.6-0.9,4.8-4.9,4.8H147.6z M174.8,15.4c-0.4,3.8-1.1,5.1-4.6,5.1h-2.1c-1.9,0-2.3-0.3-2.3-2.4v-6.9h1.9c2.4,0,2.5,2,2.7,3.8h0.6
	c-0.1-2.2-0.2-3.1-0.2-4.1c0-0.4,0-0.8,0-1.4c0-0.7,0-1.5,0.1-2.7h-0.6c-0.2,1.4-0.2,3.8-2.6,3.8h-1.9V3.9c0-2.1,0.4-2.4,2.3-2.4
	h2.3c3,0,3.4,1.1,3.8,4.5h0.6c-0.1-0.6-0.1-1.2-0.1-1.8c0-0.7,0.1-2,0.2-3.4C173.2,1,170.8,1,169.1,1c-1.7,0-5.4,0-8.2-0.1v0.6
	c1.9,0.1,2.3,0.4,2.3,2.5v14.2c0,2.1-0.4,2.4-2.3,2.5v0.6c2.8-0.1,6.5-0.1,8.2-0.1c1.9,0,4.5,0,6.4,0.1c-0.1-1.5-0.2-3-0.2-3.7
	c0-0.8,0-1.6,0.1-2.1H174.8z"/>
</svg>
