<svg xmlns="http://www.w3.org/2000/svg" xmlns:xlink="http://www.w3.org/1999/xlink" width="30" height="30" viewBox="0 0 30 30"><defs><style>.a{fill:#fff;stroke:#707070;}.b{clip-path:url(#a);}.c{fill:#333;}</style><clipPath id="a"><rect class="a" width="30" height="30" transform="translate(2479 7320)"/></clipPath></defs><g class="b" transform="translate(-2479 -7320)"><g transform="translate(2479.5 7320.5)"><path class="c" d="M9,20.25h6.75V22.5H9Z" transform="translate(-1.556 -4.455)"/><path class="c" d="M9,24.75H20.25V27H9Z" transform="translate(-2 -5.727)"/><path class="c" d="M22.833,4.5H6.167A1.668,1.668,0,0,0,4.5,6.167V22.833A1.668,1.668,0,0,0,6.167,24.5H22.833A1.668,1.668,0,0,0,24.5,22.833V6.167A1.668,1.668,0,0,0,22.833,4.5ZM16.167,6.167V9.5H12.833V6.167Zm-10,16.667V6.167h5v5h6.667v-5h5V22.833Z"/></g></g></svg>