<svg xmlns="http://www.w3.org/2000/svg" xmlns:xlink="http://www.w3.org/1999/xlink" width="200" height="200" viewBox="0 0 200 200"><defs><style>.a,.c{fill:#172b4d;}.a{stroke:#707070;}.b{opacity:0.05;clip-path:url(#a);}</style><clipPath id="a"><rect class="a" width="200" height="200" transform="translate(-2902 -883)"/></clipPath></defs><g class="b" transform="translate(2902 883)"><g transform="translate(-2855.333 -849.667)"><path class="c" d="M161.719,127.813a3.911,3.911,0,0,1,3.906,3.906v8.594h7.813v-8.594a11.719,11.719,0,0,0-23.437,0v8.594h7.813v-8.594A3.911,3.911,0,0,1,161.719,127.813Zm0,0" transform="translate(-110.938 -88.75)"/><path class="c" d="M97.813,87.344a19.531,19.531,0,0,1,39.063,0v8.594a7.813,7.813,0,0,1-15.625,0h-7.812a15.625,15.625,0,0,0,31.25,0V87.344a27.344,27.344,0,0,0-54.687,0v8.594h7.813Zm0,0" transform="translate(-66.563 -44.375)"/><path class="c" d="M161.719,261.281a3.911,3.911,0,0,1-3.906-3.906V248H150v9.375a11.719,11.719,0,0,0,23.438,0h-7.812A3.911,3.911,0,0,1,161.719,261.281Zm0,0" transform="translate(-110.938 -183.417)"/><path class="c" d="M89.069,94.271A42.659,42.659,0,0,0,93.75,74.74V42.969a42.969,42.969,0,0,0-85.937,0V74.74a42.672,42.672,0,0,0,4.682,19.531H0v39.063H101.563V94.271Zm-73.444-51.3a35.156,35.156,0,0,1,70.313,0V74.74a34.855,34.855,0,0,1-5.923,19.531H69.9A27.261,27.261,0,0,0,78.125,74.74V68.75H70.313v5.99a19.531,19.531,0,0,1-39.062,0V59.375H23.438V74.74a27.261,27.261,0,0,0,8.229,19.531H21.545a34.885,34.885,0,0,1-5.92-19.531ZM93.75,125.521H7.813V102.083H93.75Zm0,0"/><path class="c" d="M187.813,425.906A3.906,3.906,0,1,1,183.906,422,3.906,3.906,0,0,1,187.813,425.906Zm0,0" transform="translate(-133.125 -312.104)"/><path class="c" d="M127.813,425.906A3.906,3.906,0,1,1,123.906,422,3.906,3.906,0,0,1,127.813,425.906Zm0,0" transform="translate(-88.75 -312.104)"/><path class="c" d="M67.813,425.906A3.906,3.906,0,1,1,63.906,422,3.906,3.906,0,0,1,67.813,425.906Zm0,0" transform="translate(-44.375 -312.104)"/><path class="c" d="M247.813,425.906A3.906,3.906,0,1,1,243.906,422,3.906,3.906,0,0,1,247.813,425.906Zm0,0" transform="translate(-177.5 -312.104)"/><path class="c" d="M307.813,425.906A3.906,3.906,0,1,1,303.906,422,3.906,3.906,0,0,1,307.813,425.906Zm0,0" transform="translate(-221.875 -312.104)"/></g></g></svg>