<svg xmlns="http://www.w3.org/2000/svg" xmlns:xlink="http://www.w3.org/1999/xlink" width="200" height="200" viewBox="0 0 200 200"><defs><style>.a,.c{fill:#172b4d;stroke:#172b4d;}.b{opacity:0.05;clip-path:url(#a);}.c{stroke-width:0.25px;}</style><clipPath id="a"><rect class="a" width="200" height="200" transform="translate(1045 2817)"/></clipPath></defs><g class="b" transform="translate(-1045 -2817)"><g transform="translate(1079.636 2860.395)"><path class="c" d="M191.7,78.407A22.7,22.7,0,1,0,169,55.7,22.729,22.729,0,0,0,191.7,78.407Zm0-37.578A14.875,14.875,0,1,1,176.829,55.7,14.891,14.891,0,0,1,191.7,40.829Z" transform="translate(-124.898 -33)"/><path class="c" d="M391.353,125.705A14.353,14.353,0,1,0,377,111.353,14.369,14.369,0,0,0,391.353,125.705Zm0-20.877a6.524,6.524,0,1,1-6.524,6.524A6.531,6.531,0,0,1,391.353,104.829Z" transform="translate(-278.618 -80.299)"/><path class="c" d="M115.892,241h-6.054a17.745,17.745,0,0,0-16.1,10.269A31.5,31.5,0,0,0,70.453,241h-7.3a31.5,31.5,0,0,0-23.285,10.269A17.746,17.746,0,0,0,23.773,241H17.719A17.686,17.686,0,0,0,0,258.612v28.5a7.669,7.669,0,0,0,7.675,7.646H31.612a9.15,9.15,0,0,0,9.1,8.351H92.9a9.15,9.15,0,0,0,9.1-8.351h23.663a7.942,7.942,0,0,0,7.949-7.918V258.612A17.686,17.686,0,0,0,115.892,241ZM7.829,258.612a9.848,9.848,0,0,1,9.89-9.783h6.054a9.848,9.848,0,0,1,9.89,9.783v2.68c-2.632,6.854-2.088,10.961-2.088,25.636H7.829Zm86.377,35.357a1.312,1.312,0,0,1-1.31,1.31H40.715a1.312,1.312,0,0,1-1.31-1.31V272.582a23.78,23.78,0,0,1,23.753-23.753h7.3a23.78,23.78,0,0,1,23.753,23.753Zm31.576-7.129c0,.135,1.459.089-23.747.089,0-14.784.54-18.794-2.088-25.636v-2.68a9.848,9.848,0,0,1,9.89-9.783h6.054a9.848,9.848,0,0,1,9.89,9.783Z" transform="translate(0 -186.721)"/><path class="c" d="M39.353,125.705A14.353,14.353,0,1,0,25,111.353,14.369,14.369,0,0,0,39.353,125.705Zm0-20.877a6.524,6.524,0,1,1-6.524,6.524A6.531,6.531,0,0,1,39.353,104.829Z" transform="translate(-18.476 -80.299)"/></g></g></svg>