<svg xmlns="http://www.w3.org/2000/svg" xmlns:xlink="http://www.w3.org/1999/xlink" width="30" height="30" viewBox="0 0 30 30"><defs><style>.a{fill:#fff;stroke:#707070;}.b{clip-path:url(#a);}.c{fill:#333;}</style><clipPath id="a"><rect class="a" width="30" height="30" transform="translate(947 714)"/></clipPath></defs><g class="b" transform="translate(-947 -714)"><g transform="translate(948.5 716.75)"><path class="c" d="M20.214,27.179H5.929A1.429,1.429,0,0,1,4.5,25.75V17.179A1.429,1.429,0,0,1,5.929,15.75H8.071v1.429H5.929V25.75H20.214V17.179H18.071V15.75h2.143a1.429,1.429,0,0,1,1.429,1.429V25.75A1.429,1.429,0,0,1,20.214,27.179Z" transform="translate(0 -4.929)"/><path class="c" d="M14.625,22.5h4.286v1.429H14.625Z" transform="translate(-3.696 -7.393)"/><path class="c" d="M18.814,6.957,16.25,9.514V2.25H14.821V9.514L12.257,6.957,11.25,7.964l4.286,4.286,4.286-4.286Z" transform="translate(-2.464)"/></g></g></svg>