<svg xmlns="http://www.w3.org/2000/svg" width="20" height="20" viewBox="0 0 20 20"><defs><style>.a{fill:#333;}</style></defs><path class="a" d="M10,0A9.946,9.946,0,0,1,20,10,10.113,10.113,0,0,1,10,20a10.439,10.439,0,0,1-2.829-.411q.281-.453.562-1A11.977,11.977,0,0,0,8.51,16.1q.13-.529.367-1.393a2.176,2.176,0,0,0,.939.864,4.308,4.308,0,0,0,3.7-.151,6.1,6.1,0,0,0,2.808-3.607c.893-3.394-.258-6.657-3.337-7.97-3.712-1.118-7.854.277-9.3,3.6-.63,2.218-.593,5.066,1.6,5.993a.393.393,0,0,0,.313,0,2.518,2.518,0,0,0,.4-1.35.814.814,0,0,0-.151-.27c-1.211-1.639-.473-4.079.659-5.3C8.437,4.858,11.432,4.59,13.2,6.166c1.566,1.827,1.21,4.669.2,6.479a2.833,2.833,0,0,1-2.3,1.566,1.559,1.559,0,0,1-1.577-1.922,24,24,0,0,0,.886-3.542c-.051-.919-.511-1.5-1.361-1.512A2.4,2.4,0,0,0,7.128,9.827,4,4,0,0,0,7.452,11.4q-.432,1.749-.669,2.818a31.253,31.253,0,0,0-.788,3.812q-.032.605-.011,1.123A10.093,10.093,0,0,1,0,10,10.055,10.055,0,0,1,10,0Z"/></svg>