<svg xmlns="http://www.w3.org/2000/svg" xmlns:xlink="http://www.w3.org/1999/xlink" width="30" height="30" viewBox="0 0 30 30"><defs><style>.a,.c{fill:#333;}.a{stroke:#707070;}.b{clip-path:url(#a);}</style><clipPath id="a"><rect class="a" width="30" height="30" transform="translate(63 452)"/></clipPath></defs><g class="b" transform="translate(-63 -452)"><g transform="translate(64.875 453.608)"><path class="c" d="M29.914,13.8a2.217,2.217,0,0,0-.683-1.533l-8.622-8.4a1.388,1.388,0,0,0-.985-.405H18.086L28.2,13.334l0,0a.738.738,0,0,1,.034,1.037l-7.262,8.049,1.02.992,7.34-8.039a2.217,2.217,0,0,0,.582-1.577Z" transform="translate(-5.761 -0.024)"/><path class="c" d="M20.2,14.3a1.111,1.111,0,0,0-.243-1.149l-.015-.016L10.8,3.832l0,0a1.476,1.476,0,0,0-1.051-.435H3.177A2.054,2.054,0,0,0,1.125,5.444V12a1.492,1.492,0,0,0,.466,1.081l9.765,9.3,0,0a1.106,1.106,0,0,0,.762.3h.042a1.119,1.119,0,0,0,.313-.057,1.107,1.107,0,0,0,.466-.3l7.031-7.644A1.116,1.116,0,0,0,20.2,14.3Zm-8.1,6.734L2.614,12l0,0V5.444a.567.567,0,0,1,.566-.566H9.741l8.9,9.05Z" transform="translate(0 0)"/><path class="c" d="M8.6,7.875a2.414,2.414,0,1,0,2.414,2.414A2.414,2.414,0,0,0,8.6,7.875Zm0,3.343a.928.928,0,1,1,.928-.928A.928.928,0,0,1,8.6,11.218Z" transform="translate(-1.72 -1.523)"/></g></g></svg>