<svg xmlns="http://www.w3.org/2000/svg" xmlns:xlink="http://www.w3.org/1999/xlink" width="200" height="200" viewBox="0 0 200 200"><defs><style>.a,.c{fill:#172b4d;}.a{stroke:#707070;}.b{opacity:0.05;clip-path:url(#a);}</style><clipPath id="a"><rect class="a" width="200" height="200" transform="translate(-2907 -773)"/></clipPath></defs><g class="b" transform="translate(2907 773)"><g transform="translate(-2873.667 -739.667)"><rect class="c" width="10.417" height="10.417" transform="translate(61.458 59.896)"/><path class="c" d="M117.708,10.417h-6.25V0H101.042V10.417H32.292V0H21.875V10.417h-6.25A15.643,15.643,0,0,0,0,26.042v91.667a15.643,15.643,0,0,0,15.625,15.625H69.209a45.934,45.934,0,0,1-9.287-10.417h-44.3a5.214,5.214,0,0,1-5.208-5.208V48.958h112.5V59.922a45.945,45.945,0,0,1,10.417,9.287V26.042A15.643,15.643,0,0,0,117.708,10.417Zm5.208,28.125H10.417v-12.5a5.214,5.214,0,0,1,5.208-5.208h6.25V31.25H32.292V20.833h68.75V31.25h10.417V20.833h6.25a5.214,5.214,0,0,1,5.208,5.208Z"/><path class="c" d="M277.156,242a35.156,35.156,0,1,0,35.156,35.156A35.2,35.2,0,0,0,277.156,242Zm0,59.9a24.74,24.74,0,1,1,24.74-24.74A24.768,24.768,0,0,1,277.156,301.9Z" transform="translate(-178.979 -178.979)"/><path class="c" d="M366.417,310H356v22.656h19.271V322.24h-8.854Z" transform="translate(-263.292 -229.271)"/><rect class="c" width="10.417" height="10.417" transform="translate(40.625 80.729)"/><rect class="c" width="10.417" height="10.417" transform="translate(19.792 80.729)"/><rect class="c" width="10.417" height="10.417" transform="translate(19.792 59.896)"/><rect class="c" width="10.417" height="10.417" transform="translate(19.792 101.563)"/><rect class="c" width="10.417" height="10.417" transform="translate(40.625 59.896)"/><rect class="c" width="10.417" height="10.417" transform="translate(40.625 101.563)"/></g></g></svg>