<svg xmlns="http://www.w3.org/2000/svg" xmlns:xlink="http://www.w3.org/1999/xlink" width="30" height="30" viewBox="0 0 30 30"><defs><style>.a{fill:#fff;stroke:#707070;}.b{clip-path:url(#a);}.c,.d{fill:#333;}.c{fill-rule:evenodd;}</style><clipPath id="a"><rect class="a" width="30" height="30" transform="translate(1558 6127)"/></clipPath></defs><g class="b" transform="translate(-1558 -6127)"><g transform="translate(1563 6132)"><path class="c" d="M17.5,1.25H2.5A1.25,1.25,0,0,0,1.25,2.5V16.983l2.5-2.5a2.5,2.5,0,0,1,1.767-.733H17.5a1.25,1.25,0,0,0,1.25-1.25V2.5A1.25,1.25,0,0,0,17.5,1.25ZM2.5,0A2.5,2.5,0,0,0,0,2.5V18.491a.625.625,0,0,0,1.067.441l3.566-3.566A1.25,1.25,0,0,1,5.517,15H17.5A2.5,2.5,0,0,0,20,12.5V2.5A2.5,2.5,0,0,0,17.5,0Z"/><path class="d" d="M9.25,12.5A1.25,1.25,0,1,1,8,11.25,1.25,1.25,0,0,1,9.25,12.5Zm5,0A1.25,1.25,0,1,1,13,11.25,1.25,1.25,0,0,1,14.25,12.5Zm5,0A1.25,1.25,0,1,1,18,11.25,1.25,1.25,0,0,1,19.25,12.5Z" transform="translate(-3 -5)"/></g></g></svg>