<svg xmlns="http://www.w3.org/2000/svg" xmlns:xlink="http://www.w3.org/1999/xlink" width="607" height="607" viewBox="0 0 607 607"><defs><style>.a{fill:#fff;}.b{clip-path:url(#a);}.c{fill:rgba(221,225,229,0.2);}</style><clipPath id="a"><path class="a" d="M0,0H607V607H0Z" transform="translate(-17942 15969)"/></clipPath></defs><g class="b" transform="translate(17942 -15969)"><g transform="translate(-17867.461 16057.995)"><path class="c" d="M129.709,16.228H115.257A144.02,144.02,0,0,0,8.447,58.089L4.46,62.74V200.282H72.234V122.209l9.136-10.3,4.153-4.817a182.724,182.724,0,0,1,78.239-47.508,109.469,109.469,0,0,1-34.053-43.355Z" transform="translate(0 158.127)"/><path class="c" d="M179.96,58.059A144.02,144.02,0,0,0,73.149,16.2a173.915,173.915,0,0,0-18.106,1,109.469,109.469,0,0,1-33.223,40.7,181.229,181.229,0,0,1,83.056,49.834l4.153,4.651,8.97,10.3v78.239h65.449V62.71Z" transform="translate(271.012 157.659)"/><path class="c" d="M74.989,141.273h5.15A107.143,107.143,0,0,1,131.8,36.788a67.94,67.94,0,1,0-56.811,105.15Z" transform="translate(39.77 0.691)"/><path class="c" d="M70.639,129.5a108.643,108.643,0,0,1,0,11.462,67.939,67.939,0,0,0,9.635.831H83.43A67.94,67.94,0,1,0,21.47,39.14,108.472,108.472,0,0,1,70.639,129.5Z" transform="translate(265.548 0)"/><path class="c" d="M161.9,83.232A74.252,74.252,0,1,1,87.653,8.98,74.252,74.252,0,0,1,161.9,83.232Z" transform="translate(139.565 46.439)"/><path class="c" d="M133.009,20.44A160.963,160.963,0,0,0,14.9,65.291L10.75,69.942v105.15a26.08,26.08,0,0,0,26.578,25.581H228.192a26.08,26.08,0,0,0,26.578-25.581V70.274l-3.987-4.983A159.136,159.136,0,0,0,133.009,20.44Z" transform="translate(98.195 223.018)"/></g></g></svg>