<svg xmlns="http://www.w3.org/2000/svg" width="20" height="20" viewBox="0 0 20 20"><defs><style>.a{fill:#333;fill-rule:evenodd;}</style></defs><g transform="translate(20 20) rotate(180)"><path class="a" d="M10,18.75A8.75,8.75,0,1,0,1.25,10,8.75,8.75,0,0,0,10,18.75ZM10,20A10,10,0,1,0,0,10,10,10,0,0,0,10,20Z"/><path class="a" d="M10.307,17.056a.625.625,0,0,1,.885,0L14.5,20.365l3.308-3.309a.626.626,0,0,1,.885.885l-3.75,3.75a.625.625,0,0,1-.885,0l-3.75-3.75a.625.625,0,0,1,0-.885Z" transform="translate(-4.499 -7.499)"/><path class="a" d="M17.5,10.125a.625.625,0,0,1,.625.625V17a.625.625,0,0,1-1.25,0V10.75A.625.625,0,0,1,17.5,10.125Z" transform="translate(-7.5 -4.5)"/></g></svg>