<svg xmlns="http://www.w3.org/2000/svg" width="27.097" height="30" viewBox="0 0 27.097 30"><defs><style>.a,.b{fill:#333;}.a{fill-rule:evenodd;}</style></defs><g transform="translate(-2.25 -1.125)"><path class="a" d="M27.411,10.935H4.185V28.355A1.935,1.935,0,0,0,6.121,30.29H25.476a1.935,1.935,0,0,0,1.935-1.935ZM2.25,9V28.355a3.871,3.871,0,0,0,3.871,3.871H25.476a3.871,3.871,0,0,0,3.871-3.871V9Z" transform="translate(0 -1.101)"/><path class="b" d="M16.9,3.06A4.839,4.839,0,0,0,12.06,7.9H10.125a6.774,6.774,0,1,1,13.548,0H21.738A4.839,4.839,0,0,0,16.9,3.06Z" transform="translate(-1.101)"/></g></svg>