<svg xmlns="http://www.w3.org/2000/svg" xmlns:xlink="http://www.w3.org/1999/xlink" width="30" height="30" viewBox="0 0 30 30"><defs><style>.a,.c{fill:#333;}.a{stroke:#707070;}.b{opacity:0.296;clip-path:url(#a);}</style><clipPath id="a"><rect class="a" width="30" height="30" transform="translate(63 310)"/></clipPath></defs><g class="b" transform="translate(-63 -310)"><g transform="translate(65.75 312.75)"><path class="c" d="M30.875,28.821H29.446V25.25a3.576,3.576,0,0,0-3.571-3.571V20.25a5.006,5.006,0,0,1,5,5Z" transform="translate(-8.625 -6.571)"/><path class="c" d="M16.536,28.821H15.107V25.25a3.576,3.576,0,0,0-3.571-3.571H7.25A3.576,3.576,0,0,0,3.679,25.25v3.571H2.25V25.25a5.006,5.006,0,0,1,5-5h4.286a5.006,5.006,0,0,1,5,5Z" transform="translate(0 -6.571)"/><path class="c" d="M22.5,2.25V3.679a3.571,3.571,0,0,1,0,7.143V12.25a5,5,0,0,0,0-10Z" transform="translate(-7.393)"/><path class="c" d="M10.625,3.679A3.571,3.571,0,1,1,7.054,7.25a3.571,3.571,0,0,1,3.571-3.571m0-1.429a5,5,0,1,0,5,5A5,5,0,0,0,10.625,2.25Z" transform="translate(-1.232)"/></g></g></svg>