<svg xmlns="http://www.w3.org/2000/svg" xmlns:xlink="http://www.w3.org/1999/xlink" width="30" height="30" viewBox="0 0 30 30"><defs><style>.a{fill:#fff;stroke:#707070;}.b{clip-path:url(#a);}.c{fill:#f52454;}</style><clipPath id="a"><rect class="a" width="30" height="30" transform="translate(1020 720)"/></clipPath></defs><g class="b" transform="translate(-1020 -720)"><g transform="translate(1023.5 724.75)"><path class="c" d="M13.5,13.5h1.143v6.857H13.5Z" transform="translate(-4.429 -5.536)"/><path class="c" d="M20.25,13.5h1.143v6.857H20.25Z" transform="translate(-7.75 -5.536)"/><path class="c" d="M4.5,6.75V7.893H5.643V19.321a1.143,1.143,0,0,0,1.143,1.143h9.143a1.143,1.143,0,0,0,1.143-1.143V7.893h1.143V6.75ZM6.786,19.321V7.893h9.143V19.321Z" transform="translate(0 -2.214)"/><path class="c" d="M13.5,2.25h4.571V3.393H13.5Z" transform="translate(-4.429)"/></g></g></svg>