<svg xmlns="http://www.w3.org/2000/svg" xmlns:xlink="http://www.w3.org/1999/xlink" width="30" height="30" viewBox="0 0 30 30"><defs><style>.a,.c{fill:#333;}.a{stroke:#707070;}.b{opacity:0.296;clip-path:url(#a);}</style><clipPath id="a"><rect class="a" width="30" height="30" transform="translate(61 598)"/></clipPath></defs><g class="b" transform="translate(-61 -598)"><g transform="translate(63.75 599.107)"><path class="c" d="M21.536,12.464a.714.714,0,0,0,.714-.714V8.179A1.429,1.429,0,0,0,20.821,6.75H3.679A1.429,1.429,0,0,0,2.25,8.179V11.75a.714.714,0,0,0,.714.714,1.429,1.429,0,0,1,0,2.857.714.714,0,0,0-.714.714v3.571a1.429,1.429,0,0,0,1.429,1.429H20.821a1.429,1.429,0,0,0,1.429-1.429V16.036a.714.714,0,0,0-.714-.714,1.429,1.429,0,0,1,0-2.857Zm-.714,4.193v2.95h-5V17.464H14.393v2.143H3.679v-2.95a2.857,2.857,0,0,0,0-5.528V8.179H14.393v2.143h1.429V8.179h5v2.95a2.857,2.857,0,0,0,0,5.528Z" transform="translate(0)"/><path class="c" d="M21.375,14.625H22.8v4.286H21.375Z" transform="translate(-6.982 -2.875)"/></g></g></svg>