<svg xmlns="http://www.w3.org/2000/svg" xmlns:xlink="http://www.w3.org/1999/xlink" width="20" height="20" viewBox="0 0 20 20"><defs><style>.a,.c{fill:#fff;stroke:#fff;}.b{clip-path:url(#a);}.c{stroke-width:0.5px;}</style><clipPath id="a"><rect class="a" width="20" height="20" transform="translate(0.303)"/></clipPath></defs><g class="b" transform="translate(-0.303)"><g transform="translate(4 3)"><path class="c" d="M89.865,7.487a3.744,3.744,0,1,0-3.744-3.744A3.744,3.744,0,0,0,89.865,7.487Zm0-6.853a3.109,3.109,0,1,1-3.109,3.109A3.109,3.109,0,0,1,89.865.635Zm0,0" transform="translate(-83.837)"/><path class="c" d="M2.3,331.313a5.909,5.909,0,0,0-4.264,1.78,6.341,6.341,0,0,0-1.764,4.48.318.318,0,0,0,.317.317H8.012a.318.318,0,0,0,.317-.317A6.334,6.334,0,0,0,6.565,333.1,5.912,5.912,0,0,0,2.3,331.313Zm-5.387,5.942a5.666,5.666,0,0,1,1.574-3.715A5.286,5.286,0,0,1,2.3,331.95a5.286,5.286,0,0,1,3.81,1.589,5.651,5.651,0,0,1,1.574,3.715Zm0,0" transform="translate(3.727 -322.889)"/></g></g></svg>