<svg xmlns="http://www.w3.org/2000/svg" xmlns:xlink="http://www.w3.org/1999/xlink" width="50.061" height="47.833" viewBox="0 0 50.061 47.833"><defs><style>.a{fill:#fed230;stroke:#fed230;}.b{filter:url(#a);}</style><filter id="a" x="0" y="0" width="50.061" height="47.833" filterUnits="userSpaceOnUse"><feOffset dy="5" input="SourceAlpha"/><feGaussianBlur stdDeviation="5" result="b"/><feFlood flood-color="#fed230" flood-opacity="0.502"/><feComposite operator="in" in2="b"/><feComposite in="SourceGraphic"/></filter></defs><g class="b" transform="matrix(1, 0, 0, 1, 0, 0)"><path class="a" d="M10,18.5a.754.754,0,0,1-.583-.25L2.084,10.917a5.432,5.432,0,0,1,0-7.666A5.3,5.3,0,0,1,5.833,1.667,5.494,5.494,0,0,1,9.666,3.25L10,3.583l.333-.333h0a5.351,5.351,0,0,1,3.834-1.583h0A5.494,5.494,0,0,1,18,3.25h0a5.485,5.485,0,0,1,0,7.667L10.667,18.25A1.107,1.107,0,0,1,10,18.5Z" transform="translate(15 8.83)"/></g></svg>