<svg xmlns="http://www.w3.org/2000/svg" width="176.082" height="22.088" viewBox="0 0 176.082 22.088"><defs><style>.a{fill:#333;stroke:rgba(0,0,0,0);stroke-miterlimit:10;}</style></defs><path class="a" d="M23819.109,20913.93c0,4.041-.027,5.691-.109,6.867h.645c.111-.824.262-1.26.619-1.26a1.9,1.9,0,0,1,.963.4,6.446,6.446,0,0,0,3.848,1.064c3.271,0,5.98-1.8,5.98-5.439,0-3.078-2.146-4.586-5.074-6.449-2.527-1.607-4.727-2.643-4.727-5.242a3.239,3.239,0,0,1,3.436-3.328c3.119,0,4.412,2.781,4.619,5.508h.645c0-3.607.057-4.838.139-5.844h-.646c-.111.824-.262,1.258-.619,1.258a1.822,1.822,0,0,1-.961-.406,5.252,5.252,0,0,0-3.436-1.062c-2.777,0-5.291,1.58-5.291,4.965,0,3.23,2.334,4.781,5.016,6.418,2.609,1.6,4.383,2.91,4.383,5.23a3.5,3.5,0,0,1-3.654,3.82c-3.6,0-4.893-3.035-5.127-6.5Zm31.748-13.607c-.617.057-1.648.084-2.611.084s-2.2-.027-2.873-.084v.572c1.91.084,2.559.658,2.559,2.756v8.936c0,4.266-1.156,7.414-5.4,7.414-4,0-4.439-3.23-4.439-7.16v-9.484c0-2.082.357-2.377,2.281-2.461v-.572c-.879.057-2.281.084-3.588.084-1.457,0-2.8-.027-3.6-.084v.572c1.924.084,2.281.379,2.281,2.461v8.994c0,3.9.426,5.523,2.09,7.1a6.621,6.621,0,0,0,4.727,1.553,5.827,5.827,0,0,0,5.154-2.67,12.169,12.169,0,0,0,1.154-6.07v-8.615c0-2.1.357-2.672,2.268-2.756Zm18.926,18.529c-.523.672-.854,1.09-1.539,1.09-.783,0-1.1-.684-1.443-2.348l-.7-2.922c-.537-2.379-1.443-3.359-3.945-3.777l-.344-.057c4.248-.67,5.471-3.521,5.471-5.51,0-2.8-2.254-4.979-6.789-4.979-.674,0-2.475.057-4.246.057-1.238,0-2.652-.027-3.436-.084v.572c1.91.084,2.281.379,2.281,2.461v14.211c0,2.082-.371,2.375-2.281,2.461v.574c.783-.059,2.143-.086,3.6-.086,1.291,0,2.707.027,3.572.086v-.574c-1.91-.086-2.281-.379-2.281-2.461v-6.586h2.682c2.227,0,2.639,1.635,3.174,4.066l.619,2.854c.535,2.447,1.607,3.105,3.023,3.105a3.273,3.273,0,0,0,3.01-1.832Zm-12.082-8.445v-7.051c0-1.973.371-2.461,2.09-2.461,3.408,0,4.672,1.75,4.672,4.756,0,2.629-.879,4.756-4.863,4.756Zm24.271,3.313v-1.648h-10.17v1.648Zm25.275-13.4c-.881.057-2.281.084-3.574.084h-1.334l-6.045,16.531-6.186-16.615c-.619.057-1.582.084-2.406.084-.947,0-1.992-.027-2.611-.084v.572c1.91.084,2.281.379,2.281,2.461v13.916c0,2.1-.371,2.67-2.281,2.756v.574c.619-.059,1.664-.086,2.611-.086.963,0,2.2.027,2.873.086v-.574c-2.184-.086-2.555-.656-2.555-2.756v-15.117l7.09,18.586h.453l6.775-18.5v15.328c0,2.082-.355,2.375-2.268,2.461v.574c.783-.059,2.131-.086,3.6-.086,1.293,0,2.693.027,3.574.086v-.574c-1.91-.086-2.281-.379-2.281-2.461v-14.211c0-2.082.371-2.377,2.281-2.461Zm16.217,14.545c-.4,3.789-1.1,5.074-4.617,5.074h-2.062c-1.91,0-2.281-.293-2.281-2.375v-6.883h1.869c2.445,0,2.475,1.959,2.693,3.791h.646c-.137-2.182-.164-3.131-.164-4.068,0-.422-.014-.84-.014-1.371,0-.658.014-1.484.1-2.7h-.646c-.221,1.369-.166,3.777-2.611,3.777h-1.869v-6.758c0-2.082.371-2.377,2.281-2.377h2.338c2.982,0,3.406,1.119,3.777,4.506h.646a15.79,15.79,0,0,1-.082-1.777c0-.658.055-2.043.191-3.385-1.746.084-4.162.084-5.883.084-1.689,0-5.4,0-8.162-.084v.572c1.91.084,2.281.379,2.281,2.461v14.211c0,2.082-.371,2.375-2.281,2.461v.574c2.762-.086,6.473-.086,8.162-.086,1.885,0,4.537,0,6.447.086-.137-1.455-.193-2.951-.193-3.664,0-.8.029-1.555.082-2.07Zm3.986-.937c0,4.041-.029,5.691-.111,6.867h.646c.109-.824.262-1.26.619-1.26a1.9,1.9,0,0,1,.961.4,6.451,6.451,0,0,0,3.848,1.064c3.271,0,5.98-1.8,5.98-5.439,0-3.078-2.145-4.586-5.072-6.449-2.529-1.607-4.727-2.643-4.727-5.242a3.238,3.238,0,0,1,3.436-3.328c3.119,0,4.41,2.781,4.617,5.508h.645c0-3.607.057-4.838.139-5.844h-.645c-.111.824-.262,1.258-.619,1.258a1.821,1.821,0,0,1-.963-.406,5.252,5.252,0,0,0-3.436-1.062c-2.777,0-5.291,1.58-5.291,4.965,0,3.23,2.336,4.781,5.016,6.418,2.611,1.6,4.385,2.91,4.385,5.23a3.5,3.5,0,0,1-3.656,3.82c-3.6,0-4.893-3.035-5.127-6.5Zm31.746-13.607c-.617.057-1.648.084-2.611.084s-2.2-.027-2.871-.084v.572c1.91.084,2.557.658,2.557,2.756v8.936c0,4.266-1.154,7.414-5.4,7.414-4,0-4.437-3.23-4.437-7.16v-9.484c0-2.082.355-2.377,2.281-2.461v-.572c-.881.057-2.281.084-3.588.084-1.457,0-2.8-.027-3.6-.084v.572c1.926.084,2.281.379,2.281,2.461v8.994c0,3.9.428,5.523,2.09,7.1a6.621,6.621,0,0,0,4.727,1.553,5.825,5.825,0,0,0,5.154-2.67,12.148,12.148,0,0,0,1.154-6.07v-8.615c0-2.1.357-2.672,2.268-2.756Zm18.926,18.529c-.523.672-.854,1.09-1.539,1.09-.783,0-1.1-.684-1.443-2.348l-.7-2.922c-.535-2.379-1.443-3.359-3.943-3.777l-.346-.057c4.248-.67,5.471-3.521,5.471-5.51,0-2.8-2.254-4.979-6.789-4.979-.674,0-2.473.057-4.246.057-1.236,0-2.652-.027-3.436-.084v.572c1.91.084,2.281.379,2.281,2.461v14.211c0,2.082-.371,2.375-2.281,2.461v.574c.783-.059,2.143-.086,3.6-.086,1.293,0,2.707.027,3.574.086v-.574c-1.91-.086-2.281-.379-2.281-2.461v-6.586h2.68c2.227,0,2.639,1.635,3.174,4.066l.619,2.854c.535,2.447,1.607,3.105,3.023,3.105a3.269,3.269,0,0,0,3.01-1.832Zm-12.08-8.445v-7.051c0-1.973.371-2.461,2.088-2.461,3.41,0,4.674,1.75,4.674,4.756,0,2.629-.881,4.756-4.865,4.756Zm27.2,4.461c-.4,3.789-1.1,5.074-4.617,5.074h-2.061c-1.91,0-2.281-.293-2.281-2.375v-6.883h1.869c2.445,0,2.473,1.959,2.693,3.791h.645c-.137-2.182-.164-3.131-.164-4.068,0-.422-.014-.84-.014-1.371,0-.658.014-1.484.1-2.7h-.646c-.219,1.369-.164,3.777-2.609,3.777h-1.869v-6.758c0-2.082.371-2.377,2.281-2.377h2.336c2.982,0,3.408,1.119,3.779,4.506h.645a15.79,15.79,0,0,1-.082-1.777c0-.658.057-2.043.193-3.385-1.746.084-4.164.084-5.883.084-1.689,0-5.4,0-8.164-.084v.572c1.912.084,2.283.379,2.283,2.461v14.211c0,2.082-.371,2.375-2.283,2.461v.574c2.762-.086,6.475-.086,8.164-.086,1.883,0,4.535,0,6.445.086-.137-1.455-.191-2.951-.191-3.664,0-.8.027-1.555.082-2.07Z" transform="translate(-23818.465 -20899.418)"/></svg>