<svg xmlns="http://www.w3.org/2000/svg" xmlns:xlink="http://www.w3.org/1999/xlink" width="30" height="30" viewBox="0 0 30 30"><defs><style>.a{fill:#fff;stroke:#707070;}.b{clip-path:url(#a);}.c{fill:#333;fill-rule:evenodd;}.d{fill:#f52454;}</style><clipPath id="a"><rect class="a" width="30" height="30" transform="translate(1152 51)"/></clipPath></defs><g class="b" transform="translate(-1152 -51)"><g transform="translate(-2 1)"><g transform="translate(1160.5 54.75)"><path class="c" d="M20.214,13.536a14.945,14.945,0,0,0,.571,2.429l.857,2.429-.714,1h-5a2.929,2.929,0,0,1-2.857,2.857,2.594,2.594,0,0,1-2-.857,2.82,2.82,0,0,1-.857-2h-5l-.714-1,.857-2.429a14.341,14.341,0,0,0,.571-3.429V9.393A6.4,6.4,0,0,1,6.5,6.536,7.47,7.47,0,0,1,8.214,4.107a5.714,5.714,0,0,1,2.571-1.429,6.47,6.47,0,0,1,2.286-.429,15.583,15.583,0,0,0-.857,1.571,1.54,1.54,0,0,0-1,.286,4.073,4.073,0,0,0-2,1.143A4.641,4.641,0,0,0,7.786,7.107a5.922,5.922,0,0,0-.429,2.286v3.143a17.984,17.984,0,0,1-.571,3.857l-.571,1.571H19.929l-.571-1.571A15.874,15.874,0,0,1,18.838,14l-.053-.323A4.4,4.4,0,0,0,20.214,13.536Zm-7.143,7.286a1.543,1.543,0,0,0,1-.429,1.3,1.3,0,0,0,.429-1H11.643a1.3,1.3,0,0,0,.429,1A1.543,1.543,0,0,0,13.071,20.821Z" transform="translate(-6 -1)"/></g><circle class="d" cx="5" cy="5" r="5" transform="translate(1169 55)"/></g></g></svg>