<svg xmlns="http://www.w3.org/2000/svg" xmlns:xlink="http://www.w3.org/1999/xlink" width="30" height="30" viewBox="0 0 30 30"><defs><style>.a,.c{fill:#333;}.a{stroke:#707070;}.b{opacity:0.296;clip-path:url(#a);}.c{fill-rule:evenodd;}</style><clipPath id="a"><rect class="a" width="30" height="30" transform="translate(58 521)"/></clipPath></defs><g class="b" transform="translate(-58 -521)"><g transform="translate(58.5 521.5)"><path class="c" d="M19.756,5.244a.833.833,0,0,1,0,1.179L6.423,19.756a.833.833,0,1,1-1.179-1.179L18.578,5.244A.833.833,0,0,1,19.756,5.244ZM7.833,9.833a2,2,0,1,0-2-2A2,2,0,0,0,7.833,9.833Zm0,1.333A3.333,3.333,0,1,0,4.5,7.833,3.333,3.333,0,0,0,7.833,11.167Zm9.333,8a2,2,0,1,0-2-2,2,2,0,0,0,2,2Zm0,1.333a3.333,3.333,0,1,0-3.333-3.333A3.333,3.333,0,0,0,17.167,20.5Z" transform="translate(2 2)"/></g></g></svg>