<svg xmlns="http://www.w3.org/2000/svg" xmlns:xlink="http://www.w3.org/1999/xlink" width="30" height="30" viewBox="0 0 30 30"><defs><style>.a,.c{fill:#333;}.a{stroke:#707070;}.b{opacity:0.296;clip-path:url(#a);}.c{fill-rule:evenodd;}</style><clipPath id="a"><rect class="a" width="30" height="30" transform="translate(63 237)"/></clipPath></defs><g class="b" transform="translate(-63 -237)"><g transform="translate(67 237.5)"><path class="c" d="M0,5.214A.714.714,0,0,1,.714,4.5H2.857a.714.714,0,0,1,.693.542l.579,2.316H20.714a.714.714,0,0,1,.693.887l-2.143,8.571a.714.714,0,0,1-.693.542H5.714a.714.714,0,0,1-.693-.542L2.3,5.929H.714A.714.714,0,0,1,0,5.214ZM4.486,8.786l1.786,7.143H18.015L19.8,8.786ZM7.143,20.214a1.429,1.429,0,1,0,1.429,1.429A1.429,1.429,0,0,0,7.143,20.214ZM4.286,21.643A2.857,2.857,0,1,1,7.143,24.5,2.857,2.857,0,0,1,4.286,21.643Zm12.857-1.429a1.429,1.429,0,1,0,1.429,1.429A1.429,1.429,0,0,0,17.143,20.214Zm-2.857,1.429A2.857,2.857,0,1,1,17.143,24.5,2.857,2.857,0,0,1,14.286,21.643Z"/></g></g></svg>