<svg xmlns="http://www.w3.org/2000/svg" xmlns:xlink="http://www.w3.org/1999/xlink" width="30" height="30" viewBox="0 0 30 30"><defs><style>.a{fill:#fff;stroke:#707070;}.b{clip-path:url(#a);}.c{fill:#333;}</style><clipPath id="a"><rect class="a" width="30" height="30"/></clipPath></defs><g class="b"><path class="c" d="M17.6,13.138h-4a2.311,2.311,0,1,1,0-4.622H20v-1.6H16.6V3.938H15V6.916H13.6a3.911,3.911,0,1,0,0,7.822h4a2.314,2.314,0,0,1,2.311,2.311v.178A2.314,2.314,0,0,1,17.6,19.538h-6.77v1.6H15v2.8h1.6v-2.8h1a3.915,3.915,0,0,0,3.911-3.911v-.178A3.915,3.915,0,0,0,17.6,13.138Z" transform="translate(-0.688 1.062)"/></g></svg>