<svg xmlns="http://www.w3.org/2000/svg" xmlns:xlink="http://www.w3.org/1999/xlink" width="85" height="85" viewBox="0 0 85 85"><defs><style>.a{fill:#333;stroke:#707070;}.b{clip-path:url(#a);}.c{fill:#777;}</style><clipPath id="a"><rect class="a" width="85" height="85"/></clipPath></defs><g class="b"><g transform="translate(19.47 22.5)"><path class="c" d="M41.742,24.137a4.434,4.434,0,0,0-1.366-3.065L23.132,4.274a2.776,2.776,0,0,0-1.969-.811H18.086L38.307,23.2l.008.008a1.477,1.477,0,0,1,.069,2.075L23.86,41.386,25.9,43.369l14.68-16.078A4.433,4.433,0,0,0,41.742,24.137Z" transform="translate(4.314 -3.369)"/><path class="c" d="M39.281,25.207a2.221,2.221,0,0,0-.486-2.3l-.029-.032L20.469,4.272l-.009-.009a2.952,2.952,0,0,0-2.1-.87H5.228a4.109,4.109,0,0,0-4.1,4.1V20.6a2.983,2.983,0,0,0,.932,2.162l19.53,18.591.007.007a2.212,2.212,0,0,0,1.524.6H23.2a2.239,2.239,0,0,0,.626-.114,2.215,2.215,0,0,0,.932-.6L38.823,25.957a2.232,2.232,0,0,0,.457-.749ZM23.087,38.676,4.1,20.606,4.1,20.6V7.5A1.133,1.133,0,0,1,5.228,6.365H18.357l17.8,18.1Z" transform="translate(-1.125 -3.392)"/><path class="c" d="M11.016,7.875A4.828,4.828,0,1,0,15.845,12.7a4.828,4.828,0,0,0-4.828-4.828Zm0,6.687A1.857,1.857,0,1,1,12.873,12.7,1.857,1.857,0,0,1,11.016,14.562Z" transform="translate(0.499 -1.954)"/></g></g></svg>