<svg xmlns="http://www.w3.org/2000/svg" xmlns:xlink="http://www.w3.org/1999/xlink" width="30" height="30" viewBox="0 0 30 30"><defs><style>.a{fill:#fff;stroke:#707070;}.b{clip-path:url(#a);}.c{fill:#333;}</style><clipPath id="a"><rect class="a" width="30" height="30" transform="translate(1096 51)"/></clipPath></defs><g class="b" transform="translate(-1096 -51)"><g transform="translate(1098.285 53.705)"><path class="c" d="M20.327,12.839v-1.1l1.375-1.2a1.433,1.433,0,0,0,.272-1.827l-1.69-2.865a1.444,1.444,0,0,0-1.7-.644l-1.741.587a8.13,8.13,0,0,0-.939-.537l-.365-1.805a1.433,1.433,0,0,0-1.433-1.153H10.756A1.433,1.433,0,0,0,9.323,3.448L8.958,5.253a8.223,8.223,0,0,0-.946.537l-1.7-.616a1.433,1.433,0,0,0-.458-.043,1.433,1.433,0,0,0-1.239.716L2.921,8.713a1.433,1.433,0,0,0,.294,1.8L4.568,11.75v1.1l-1.354,1.2a1.433,1.433,0,0,0-.294,1.827l1.69,2.865a1.444,1.444,0,0,0,1.7.644L8.049,18.8a8.13,8.13,0,0,0,.939.537l.365,1.805a1.433,1.433,0,0,0,1.433,1.153h3.381A1.433,1.433,0,0,0,15.6,21.141l.365-1.805a8.224,8.224,0,0,0,.946-.537l1.734.587a1.444,1.444,0,0,0,1.7-.644l1.633-2.865a1.433,1.433,0,0,0-.294-1.8Zm-1.282,5.186-2.457-.831a6.346,6.346,0,0,1-1.941,1.124l-.508,2.572H10.757l-.509-2.543a6.7,6.7,0,0,1-1.934-1.124l-2.463.8L4.16,15.16l1.948-1.719a6.375,6.375,0,0,1,0-2.242L4.16,9.429,5.85,6.564l2.457.831a6.346,6.346,0,0,1,1.941-1.124L10.757,3.7h3.381l.509,2.543a6.7,6.7,0,0,1,1.934,1.124l2.463-.8,1.69,2.865-1.948,1.719a6.375,6.375,0,0,1,0,2.242l1.948,1.769Z"/><path class="c" d="M15.548,19.846A4.255,4.255,0,1,1,18.6,18.6,4.3,4.3,0,0,1,15.548,19.846Zm0-7.163a2.8,2.8,0,1,0,2.046.82,2.8,2.8,0,0,0-2.046-.82Z" transform="translate(-3.101 -3.253)"/></g></g></svg>