<svg xmlns="http://www.w3.org/2000/svg" width="20.745" height="23.709" viewBox="0 0 20.745 23.709">
  <path id="Icon_awesome-discord" data-name="Icon awesome-discord" d="M13.763,11.262a1.213,1.213,0,1,1-1.209-1.316A1.263,1.263,0,0,1,13.763,11.262ZM8.227,9.946a1.321,1.321,0,0,0,0,2.632,1.263,1.263,0,0,0,1.209-1.316A1.255,1.255,0,0,0,8.227,9.946Zm12.518-7.5V23.709c-2.986-2.639-2.031-1.766-5.5-4.991l.628,2.193H2.43A2.436,2.436,0,0,1,0,18.469V2.442A2.436,2.436,0,0,1,2.43,0H18.315A2.436,2.436,0,0,1,20.745,2.442ZM17.367,13.68A15.875,15.875,0,0,0,15.66,6.769a5.862,5.862,0,0,0-3.331-1.245l-.166.19a7.889,7.889,0,0,1,2.952,1.506,10.072,10.072,0,0,0-8.855-.344c-.439.2-.7.344-.7.344A8,8,0,0,1,8.677,5.666l-.119-.142A5.862,5.862,0,0,0,5.228,6.769,15.875,15.875,0,0,0,3.521,13.68a4.3,4.3,0,0,0,3.616,1.8s.439-.533.794-.984a3.687,3.687,0,0,1-2.075-1.4c.174.122.462.28.486.3a8.641,8.641,0,0,0,7.4.415,6.783,6.783,0,0,0,1.363-.7,3.741,3.741,0,0,1-2.146,1.411c.356.45.782.96.782.96A4.333,4.333,0,0,0,17.367,13.68Z" fill="#fff"/>
</svg>
