<svg xmlns="http://www.w3.org/2000/svg" width="20.316" height="20.316" viewBox="0 0 20.316 20.316">
  <path id="Icon_metro-instagram" data-name="Icon metro-instagram" d="M19.514,1.928H5.943A3.383,3.383,0,0,0,2.571,5.3V18.871a3.383,3.383,0,0,0,3.373,3.373h13.57a3.383,3.383,0,0,0,3.373-3.373V5.3a3.383,3.383,0,0,0-3.373-3.373ZM9.074,10.816h7.309a3.869,3.869,0,1,1-7.309,0Zm11.273,0v7.618a1.273,1.273,0,0,1-1.27,1.27H6.38a1.273,1.273,0,0,1-1.27-1.27V10.816H7.1a5.773,5.773,0,1,0,11.265,0Zm0-4.445a.637.637,0,0,1-.635.635h-1.27a.637.637,0,0,1-.635-.635V5.1a.637.637,0,0,1,.635-.635h1.27a.637.637,0,0,1,.635.635Z" transform="translate(-2.571 -1.928)" fill="#fff"/>
</svg>
