<svg xmlns="http://www.w3.org/2000/svg" width="21.852" height="17.782" viewBox="0 0 21.852 17.782">
  <path id="Icon_ionic-logo-twitter" data-name="Icon ionic-logo-twitter" d="M23.265,6.607a9.064,9.064,0,0,1-2.575.708,4.5,4.5,0,0,0,1.973-2.482,8.908,8.908,0,0,1-2.848,1.088,4.482,4.482,0,0,0-7.756,3.065,4.389,4.389,0,0,0,.116,1.023A12.705,12.705,0,0,1,2.932,5.32a4.492,4.492,0,0,0,1.394,5.992,4.379,4.379,0,0,1-2.037-.56v.056a4.487,4.487,0,0,0,3.6,4.4,4.513,4.513,0,0,1-1.181.157,4.229,4.229,0,0,1-.843-.083A4.49,4.49,0,0,0,8.054,18.4a8.989,8.989,0,0,1-5.571,1.922,9.087,9.087,0,0,1-1.07-.065,12.531,12.531,0,0,0,6.863,2.028A12.68,12.68,0,0,0,21.042,9.51c0-.194,0-.389-.014-.579A9.126,9.126,0,0,0,23.265,6.607Z" transform="translate(-1.413 -4.5)" fill="#fff"/>
</svg>
