<svg xmlns="http://www.w3.org/2000/svg" width="20.316" height="20.316" viewBox="0 0 20.316 20.316">
  <path id="Icon_metro-youtube" data-name="Icon metro-youtube" d="M8.388,1.928,7.015,4.651,5.642,1.928H3.891L6.366,6.24l.014-.009V9.547H7.65V6.231l.014.009,2.474-4.312Zm3.706,2.54a.643.643,0,0,1,.635.635v2.54a.635.635,0,1,1-1.27,0V5.1a.643.643,0,0,1,.635-.635Zm0-1.27a1.91,1.91,0,0,0-1.9,1.9v2.54a1.9,1.9,0,1,0,3.809,0V5.1a1.91,1.91,0,0,0-1.9-1.9Zm5.714,0v5c-.554.462-1.27.741-1.27-.905V3.2h-1.27V7.549h0c.02,1.05.241,2.94,2.538,1.4v.594h1.27V3.2h-1.27Zm1.9,12.7a.636.636,0,0,0-.635.635v.635h1.27V16.53a.636.636,0,0,0-.635-.635ZM14,16.53v3.333c.43.43,1.27.476,1.27-.159V16.729C15.268,16.094,14.633,15.9,14,16.53Zm8.784-3.064a2.64,2.64,0,0,0-2.6-2.546c-1.385-.069-4.552-.1-7.335-.1s-6.176.034-7.561.1a2.64,2.64,0,0,0-2.6,2.546c-.083,1.49-.125,2.031-.125,2.776s.042,1.863.125,3.353a2.64,2.64,0,0,0,2.6,2.546c1.384.069,4.778.1,7.561.1s5.951-.034,7.335-.1a2.64,2.64,0,0,0,2.6-2.546q.1-1.863.1-3.353c0-.994-.035-1.534-.1-2.776ZM6.38,20.974H5.11V14.626H3.84v-1.27H7.65v1.27H6.38Zm5.079,0h-1.27V20.38c-2.414,1.355-2.518.044-2.538-1.006h0V15.9h1.27v3.5c0,.767.716.693,1.27.231V15.9h1.27Zm5.079-1.288c0,1.327-1.359,1.714-2.54.682v.606h-1.27V13.356H14v2.063c1.27-1.27,2.54-.794,2.54.476Zm5.079-2.521V17.8h-2.54v1.27a.635.635,0,1,0,1.27,0v-.635h1.27v.635a1.9,1.9,0,1,1-3.809,0V16.53a1.9,1.9,0,1,1,3.809,0v.635Z" transform="translate(-2.571 -1.928)" fill="#fff"/>
</svg>
